<svg version="1.1" id="Layer_1" xmlns="http://www.w3.org/2000/svg" x="0" y="0" xml:space="preserve" viewBox="475.22 703.47 1048.68 510.41"><style>.st1{fill:#fff}.st2{fill:#007d79}.st3{fill:#33b1ff}.st4{fill:#8a3ffc}</style><path class="st1" d="M558.83 1083.26h24.48v77.16c0 8.23-1.17 15.64-3.52 22.23s-5.81 12.21-10.38 16.84c-4.57 4.64-10.18 8.19-16.84 10.67-6.66 2.48-14.3 3.72-22.91 3.72-8.75 0-16.52-1.24-23.3-3.72-6.79-2.48-12.47-6.04-17.04-10.67-4.57-4.63-8.06-10.25-10.48-16.84s-3.62-14-3.62-22.23v-77.16h25.07v77.16c0 9.53 2.41 16.97 7.25 22.33 4.83 5.35 12.14 8.03 21.93 8.03 9.92 0 17.3-2.67 22.13-8.03 4.83-5.35 7.25-12.79 7.25-22.33v-77.16z"></path><path class="st1" d="M787.17 1147.3c0 9.66-1.66 18.54-4.99 26.63-3.33 8.1-8.03 15.11-14.1 21.05-6.07 5.94-13.29 10.58-21.64 13.9-8.36 3.33-17.5 4.99-27.42 4.99-10.05 0-19.22-1.66-27.51-4.99-8.29-3.33-15.47-7.96-21.54-13.9-6.07-5.94-10.77-12.96-14.1-21.05s-4.99-16.97-4.99-26.63c0-9.53 1.67-18.37 4.99-26.54 3.33-8.16 8.03-15.21 14.1-21.15 6.07-5.94 13.25-10.57 21.54-13.9s17.46-4.99 27.51-4.99c9.92 0 19.06 1.66 27.42 4.99 8.35 3.33 15.57 7.97 21.64 13.9 6.07 5.94 10.77 12.99 14.1 21.15 3.33 8.16 4.99 17.01 4.99 26.54zm-68.15 43.47c6.4 0 12.21-1.08 17.43-3.23 5.22-2.15 9.69-5.19 13.41-9.11 3.72-3.92 6.62-8.52 8.71-13.81 2.09-5.29 3.13-11.06 3.13-17.33 0-6.27-1.05-12.04-3.13-17.33-2.09-5.29-4.99-9.86-8.71-13.71-3.72-3.85-8.19-6.85-13.41-9.01-5.22-2.15-11.03-3.23-17.43-3.23s-12.21 1.08-17.43 3.23c-5.22 2.15-9.69 5.16-13.41 9.01-3.72 3.85-6.63 8.42-8.72 13.71-2.09 5.29-3.13 11.06-3.13 17.33 0 6.27 1.04 12.04 3.13 17.33 2.09 5.29 4.99 9.89 8.72 13.81 3.72 3.92 8.19 6.95 13.41 9.11 5.22 2.15 11.03 3.23 17.43 3.23z"></path><path class="st1" d="M938.75 1211.33v-77.16c0-9.53-2.45-16.94-7.34-22.23-4.9-5.29-12.24-7.93-22.03-7.93-9.79 0-17.14 2.64-22.03 7.93-4.9 5.29-7.34 12.7-7.34 22.23v77.16h-25.07v-77.16c0-8.23 1.21-15.63 3.62-22.23 2.41-6.59 5.91-12.21 10.48-16.84 4.57-4.63 10.25-8.19 17.04-10.67 6.79-2.48 14.56-3.72 23.3-3.72 8.75 0 16.51 1.24 23.3 3.72 6.79 2.48 12.47 6.04 17.04 10.67 4.57 4.64 8.06 10.25 10.48 16.84 2.41 6.59 3.62 14 3.62 22.23v77.16h-25.07z"></path><path class="st1" d="M1118.91 1211.33v-77.16c0-9.53-2.45-16.94-7.34-22.23-4.9-5.29-12.24-7.93-22.03-7.93-9.79 0-17.14 2.64-22.03 7.93-4.9 5.29-7.34 12.7-7.34 22.23v77.16h-25.07v-77.16c0-8.23 1.21-15.63 3.62-22.23 2.41-6.59 5.91-12.21 10.48-16.84 4.57-4.63 10.25-8.19 17.04-10.67 6.79-2.48 14.56-3.72 23.3-3.72 8.75 0 16.51 1.24 23.3 3.72 6.79 2.48 12.47 6.04 17.04 10.67 4.57 4.64 8.06 10.25 10.48 16.84 2.41 6.59 3.62 14 3.62 22.23v77.16h-25.07z"></path><path class="st1" d="M1348.04 1147.3c0 9.66-1.66 18.54-4.99 26.63-3.33 8.1-8.03 15.11-14.1 21.05-6.07 5.94-13.29 10.58-21.64 13.9-8.36 3.33-17.5 4.99-27.42 4.99-10.05 0-19.22-1.66-27.51-4.99-8.29-3.33-15.47-7.96-21.54-13.9-6.07-5.94-10.77-12.96-14.1-21.05s-4.99-16.97-4.99-26.63c0-9.53 1.67-18.37 4.99-26.54 3.33-8.16 8.03-15.21 14.1-21.15 6.07-5.94 13.25-10.57 21.54-13.9s17.46-4.99 27.51-4.99c9.92 0 19.06 1.66 27.42 4.99 8.35 3.33 15.57 7.97 21.64 13.9 6.07 5.94 10.77 12.99 14.1 21.15 3.32 8.16 4.99 17.01 4.99 26.54zm-68.15 43.47c6.4 0 12.21-1.08 17.43-3.23 5.22-2.15 9.69-5.19 13.41-9.11 3.72-3.92 6.62-8.52 8.71-13.81 2.09-5.29 3.13-11.06 3.13-17.33 0-6.27-1.05-12.04-3.13-17.33-2.09-5.29-4.99-9.86-8.71-13.71-3.72-3.85-8.19-6.85-13.41-9.01-5.22-2.15-11.03-3.23-17.43-3.23s-12.21 1.08-17.43 3.23c-5.22 2.15-9.69 5.16-13.41 9.01-3.72 3.85-6.63 8.42-8.72 13.71-2.09 5.29-3.13 11.06-3.13 17.33 0 6.27 1.04 12.04 3.13 17.33 2.09 5.29 4.99 9.89 8.72 13.81 3.72 3.92 8.19 6.95 13.41 9.11 5.22 2.15 11.03 3.23 17.43 3.23z"></path><path class="st1" d="M1499.42 1083.26h24.48v77.16c0 8.23-1.17 15.64-3.52 22.23s-5.81 12.21-10.38 16.84c-4.57 4.64-10.18 8.19-16.84 10.67-6.66 2.48-14.3 3.72-22.91 3.72-8.75 0-16.52-1.24-23.3-3.72-6.79-2.48-12.47-6.04-17.04-10.67-4.57-4.63-8.06-10.25-10.48-16.84s-3.62-14-3.62-22.23v-77.16h25.07v77.16c0 9.53 2.41 16.97 7.25 22.33 4.83 5.35 12.14 8.03 21.93 8.03 9.92 0 17.3-2.67 22.13-8.03 4.83-5.35 7.25-12.79 7.25-22.33v-77.16z"></path><g><path class="st3" d="M647.76 770.92c1.3 2.63 2.57 5.34 3.82 8.09-20.33-5.47-43.16-8.58-69.46-8.58v-6.73c24.46-.01 46.13 2.61 65.64 7.22z"></path><path class="st3" d="M926.03 948.29c-3.05 1.6-6.19 3.09-9.4 4.46-3.62-1.13-7.15-2.34-10.61-3.62-12.38-4.57-23.81-9.98-34.53-16.03a222.75 222.75 0 0 1-8.69-5.11c-28.93-17.78-52.79-39.99-76.29-61.86-36.26-33.76-71.14-66.24-122.29-83.31-1.27-2.91-2.55-5.76-3.86-8.56 58.74 17.25 97.22 53.08 134.78 88.05 22.68 21.11 44.84 41.74 70.76 58.39 2.84 1.83 5.72 3.61 8.66 5.33 12.6 7.41 26.15 13.86 41.08 18.98a225.3 225.3 0 0 0 10.39 3.28z"></path><path class="st3" d="M1338.73 774.26c-1.31 2.8-2.6 5.66-3.88 8.56-33.49 11.19-60.02 28.98-84.51 49.41-2.29 1.9-4.56 3.84-6.81 5.78-10.47 9.05-20.66 18.54-30.95 28.11-23.5 21.87-47.36 44.08-76.3 61.87-2.84 1.75-5.72 3.46-8.66 5.1-33.55 18.88-74.02 31.64-128.08 31.64-31.92 0-59.1-4.45-82.91-11.99 3.21-1.37 6.35-2.86 9.4-4.46 21.32 6.17 45.44 9.71 73.51 9.71 53.23 0 92.27-12.75 124.97-31.98 2.94-1.71 5.83-3.5 8.66-5.32 25.94-16.66 48.1-37.28 70.78-58.4 11-10.25 22.08-20.56 33.73-30.47 2.23-1.9 4.5-3.79 6.79-5.66 26.38-21.58 56.04-40.68 94.26-51.9z"></path><path class="st3" d="M1416.98 763.69v6.73c-26.3 0-49.13 3.12-69.46 8.59-4.33 1.17-8.56 2.44-12.67 3.81 1.28-2.91 2.56-5.76 3.88-8.56 4.1-1.21 8.29-2.32 12.6-3.35 19.52-4.6 41.2-7.22 65.65-7.22z"></path><g><path class="st2" d="M1133.18 920.71c-2.84 1.82-5.72 3.6-8.66 5.32-9.05-21.23-17.31-44.9-25.72-68.98-6.52-18.62-13.13-37.58-20.19-55.35-.94-2.39-1.9-4.76-2.87-7.09-5.96-14.53-12.3-28.11-19.14-39.89-17.44-29.95-36.1-44.52-57.06-44.52s-39.61 14.57-57.05 44.52c-16.18 27.81-29.41 65.69-42.2 102.33-8.41 24.09-16.68 47.76-25.73 68.98-2.94-1.71-5.83-3.5-8.66-5.33 8.59-20.51 16.45-43.05 24.16-65.13 27.31-78.22 53.09-152.1 109.47-152.1 40.08 0 64.7 37.32 85.39 87.02.94 2.25 1.87 4.52 2.79 6.82 7.35 18.34 14.28 38.16 21.29 58.26 7.73 22.09 15.6 44.63 24.18 65.14z"></path><path class="st2" d="M677.78 816.75c-4.87-4.25-9.98-8.25-15.36-11.94-3.49-8.93-7.09-17.6-10.84-25.81-1.25-2.75-2.52-5.45-3.82-8.09-2.76-5.69-5.63-11.12-8.59-16.2-17.43-29.95-36.1-44.52-57.06-44.52v-6.72c35.58 0 58.98 29.42 78.25 70.79 1.31 2.8 2.6 5.66 3.86 8.56 4.7 10.72 9.18 22.13 13.56 33.93z"></path><path class="st2" d="M874.57 926.03a709.05 709.05 0 0 1-3.08 7.07c-3.79 8.45-7.71 16.43-11.86 23.85-1.27 2.28-2.57 4.49-3.89 6.66-16.75 27.58-37.11 45.53-64.91 45.53-56.37 0-82.17-73.88-109.46-152.1-4.38-12.5-8.78-25.14-13.36-37.48-1.84-4.98-3.7-9.9-5.6-14.75 5.39 3.69 10.49 7.69 15.36 11.94 2.26 6.11 4.5 12.34 6.73 18.62 2.37 6.66 4.71 13.41 7.08 20.19 12.78 36.64 26 74.51 42.2 102.32 17.41 29.96 36.1 44.53 57.04 44.53 19.75 0 37.46-12.92 54.01-39.48a205.155 205.155 0 0 0 3.83-6.45c4.97-8.67 9.66-18.28 14.13-28.51 1.04-2.39 2.1-4.82 3.11-7.28 2.85 1.84 5.73 3.62 8.67 5.34z"></path><path class="st2" d="M1416.98 703.47v6.73c-20.96 0-39.62 14.56-57.05 44.52-2.96 5.08-5.82 10.5-8.6 16.2-1.29 2.64-2.56 5.34-3.81 8.09-10.83 23.71-20.43 51.21-29.79 78.03-4.69 13.45-9.35 26.76-14.11 39.6-1.2 3.23-2.41 6.43-3.62 9.59-22.08 57.4-47.49 102.91-91.74 102.91-37.07 0-60.91-31.94-80.65-76.04 2.95-1.65 5.83-3.36 8.68-5.1 4.72 10.77 9.67 20.86 14.92 29.89 17.42 29.96 36.09 44.53 57.05 44.53 20.96 0 39.62-14.57 57.05-44.53 9.98-17.15 18.83-38.14 27.16-60.3 1.23-3.27 2.46-6.58 3.66-9.9 3.88-10.62 7.64-21.43 11.38-32.12 8.91-25.52 17.66-50.57 27.34-72.75 1.28-2.91 2.56-5.76 3.88-8.56 19.28-41.37 42.67-70.79 78.25-70.79z"></path></g><g><path class="st4" d="M1078.61 801.69c-6.29 3.37-12.45 7.36-18.53 11.98-21.34 16.23-38.88 38.47-55.85 59.98-22.43 28.43-45.35 57.5-78.19 74.64-3.05 1.6-6.19 3.09-9.4 4.46-16.12 6.88-34.54 10.93-56.22 10.93-1.57 0-3.14-.02-4.68-.07-3.73-.1-7.35-.32-10.9-.67-62.57-6.02-95.92-48.31-128.26-89.29-10.23-12.99-20.69-26.24-32.07-38.27-5.27-5.59-10.75-10.91-16.5-15.82-2.37-2.03-4.8-4-7.29-5.89-23.65-17.99-48.62-26.37-78.61-26.37v-6.73c33.32 0 58.96 9.6 80.3 24.24 5.39 3.69 10.49 7.69 15.36 11.94 18.11 15.78 33.25 34.95 48.16 53.86 16.96 21.51 34.51 43.75 55.87 59.99 20.48 15.58 41.98 23.95 66.87 25.9 3.58.29 7.21.44 10.96.46.26.01.53.01.78.01 16.51 0 31.5-2.55 45.61-7.83 3.24-1.22 6.46-2.59 9.63-4.12 8-3.84 15.76-8.63 23.38-14.41 21.34-16.24 38.87-38.48 55.85-59.99 23.03-29.21 46.59-59.07 80.86-76.01.96 2.33 1.93 4.69 2.87 7.08z"></path><path class="st4" d="M1244.47 826.19c-2.29 1.87-4.56 3.76-6.79 5.66-6.44-6.57-13.19-12.71-20.39-18.17-23.63-17.99-48.61-26.37-78.61-26.37-18.61 0-35.31 3.23-50.96 10-.92-2.3-1.86-4.57-2.79-6.82 15.53-6.25 33.17-9.92 53.76-9.92 47.68 0 79.62 19.63 105.78 45.62z"></path><path class="st4" d="M1416.98 956.96v6.73c-54.69 0-88.67-25.83-116.98-57.45-2.55-2.83-5.05-5.72-7.52-8.64-6.62-7.84-12.97-15.91-19.31-23.94-9.5-12.05-19.19-24.32-29.63-35.64 2.25-1.95 4.52-3.88 6.81-5.78 11.44 12.11 21.85 25.32 32.15 38.38 4.48 5.68 9 11.42 13.63 17.08 2.47 3.01 4.96 6 7.49 8.95 10.69 12.5 22.05 24.29 34.75 33.95 23.64 17.98 48.62 26.36 78.61 26.36z"></path></g></g></svg>